<svg xmlns="http://www.w3.org/2000/svg" viewBox="0 0 100 100">
  <path d="M30,55 C25,40 35,30 50,30 C65,30 75,40 70,55 C85,45 95,60 90,70 C85,80 70,75 70,75 C70,85 60,90 50,90 C40,90 30,85 30,75 C30,75 15,80 10,70 C5,60 15,45 30,55 Z" fill="#feca57" stroke="#555" stroke-width="2"/>
  <circle cx="40" cy="45" r="5" fill="#fff" stroke="#555" stroke-width="1.5"/>
  <circle cx="60" cy="45" r="5" fill="#fff" stroke="#555" stroke-width="1.5"/>
  <circle cx="42" cy="45" r="2" fill="#000"/>
  <circle cx="62" cy="45" r="2" fill="#000"/>
  <path d="M45,60 Q50,65 55,60" fill="none" stroke="#555" stroke-width="1.5" stroke-linecap="round"/>
  <path d="M20,70 Q10,40 30,20" fill="none" stroke="#fff" stroke-width="2" stroke-dasharray="3,2"/>
  <path d="M80,70 Q90,40 70,20" fill="none" stroke="#fff" stroke-width="2" stroke-dasharray="3,2"/>
</svg>
